
nColumns=19
nRows=68
DataType=double
version=3
OpenSimVersion=4.4-2022-10-11-798caa840
endheader
time	ground_force_calcn_r_vx	ground_force_calcn_r_vy	ground_force_calcn_r_vz	ground_force_calcn_r_px	ground_force_calcn_r_py	ground_force_calcn_r_pz	ground_force_calcn_r_mx	ground_force_calcn_r_my	ground_force_calcn_r_mz	ground_force_calcn_l_vx	ground_force_calcn_l_vy	ground_force_calcn_l_vz	ground_force_calcn_l_px	ground_force_calcn_l_py	ground_force_calcn_l_pz	ground_force_calcn_l_mx	ground_force_calcn_l_my	ground_force_calcn_l_mz
0.9399999999999999	0	0	0	0	0	0	0	0	0	-44.9738	83.405	6.84105	-0.212881	0	-0.776509	0.117874	-0.218599	-0.01793
0.95	-104.783	138.851	-5.03436	-0.116275	0	-0.453471	-0.194998	0.258397	-0.0093688	-199.99	380.692	34.3856	-0.219196	0	-0.785413	0.337094	-0.641678	-0.0579588
0.96	-225.252	443.053	-33.2394	-0.186593	0	-0.45948	-0.642648	1.26404	-0.0948326	-191.877	491.893	62.2086	-0.225329	0	-0.78378	0.467092	-1.19743	-0.151436
0.97	-69.1054	1087.59	-49.1674	-0.269968	0	-0.466201	0.105473	-1.65994	0.0750421	-77.41079999999999	638.798	61.7244	-0.260527	0	-0.778276	-0.0824865	0.680682	0.0657715
0.98	54.2359	1539.82	-36.7724	-0.289543	0	-0.469409	-0.171296	-4.8633	0.11614	7.22622	1072.57	72.6575	-0.308891	0	-0.771539	0.0258624	3.8387	0.260039
0.99	-154.33	1033.29	-24.8379	-0.266648	0	-0.470092	0.562271	-3.76461	0.09049210000000001	26.5867	1288.44	88.69	-0.324844	0	-0.768994	0.09839000000000001	4.76814	0.328217
1	-326.974	591.497	-37.8086	-0.210665	0	-0.4683	0.505661	-0.914743	0.0584706	-130.302	994.419	77.88160000000001	-0.305157	0	-0.769707	-0.511702	3.90512	0.305844
1.01	-315.423	496.098	-42.8706	-0.183993	0	-0.467143	0.0321944	-0.0506354	0.00437569	-197.173	747.644	57.4017	-0.27583	0	-0.771127	-1.00442	3.80856	0.292409
1.02	-237.49	578.484	-38.5777	-0.199769	0	-0.467006	0.429963	-1.04731	0.0698429	-163.336	693.376	48.5204	-0.264043	0	-0.771433	-1.13959	4.83767	0.338526
1.03	-186.967	665.42	-29.1992	-0.210067	0	-0.467873	0.6555260000000001	-2.33303	0.102375	-129.965	696.506	44.8695	-0.260248	0	-0.770826	-1.0402	5.57461	0.359121
1.04	-156.327	679.338	-33.7647	-0.208904	0	-0.467568	0.500567	-2.17527	0.108116	-113.849	683.5359999999999	42.9347	-0.254851	0	-0.770321	-0.951479	5.71258	0.358822
1.05	-126.715	670.89	-44.3331	-0.205782	0	-0.466824	0.246194	-1.30346	0.0861344	-101.156	656.448	41.3644	-0.248946	0	-0.769925	-0.841702	5.46217	0.344185
1.06	-105.853	646.771	-41.7241	-0.201154	0	-0.467156	0.201382	-1.23047	0.0793792	-86.46469999999999	622.433	37.1152	-0.244231	0	-0.769127	-0.698419	5.02771	0.299799
1.07	-94.48690000000001	611.463	-31.7229	-0.194506	0	-0.468022	0.276776	-1.79113	0.09292449999999999	-72.3032	586.389	33.1636	-0.240295	0	-0.768203	-0.544519	4.41613	0.249757
1.08	-87.8189	571.913	-26.096	-0.186137	0	-0.468878	0.282343	-1.83874	0.0839003	-64.3214	559.596	33.0693	-0.236544	0	-0.76784	-0.420296	3.65657	0.216085
1.09	-89.0194	543.783	-22.9625	-0.178105	0	-0.469832	0.273684	-1.67182	0.0705967	-68.1499	552.842	36.9616	-0.233266	0	-0.768129	-0.357177	2.89747	0.193718
1.1	-97.53530000000001	536.866	-20.411	-0.172668	0	-0.470655	0.292766	-1.61148	0.0612664	-76.027	560.335	40.1733	-0.230989	0	-0.76838	-0.341119	2.51412	0.18025
1.11	-101.291	539.127	-20.8347	-0.169749	0	-0.471208	0.26509	-1.41095	0.0545264	-77.8584	568.639	39.4078	-0.22978	0	-0.768236	-0.363424	2.65427	0.183946
1.12	-97.4062	541.854	-23.6226	-0.168251	0	-0.47144	0.176239	-0.980385	0.0427408	-74.7226	572.058	36.0645	-0.228794	0	-0.767935	-0.393634	3.01356	0.189985
1.13	-90.18810000000001	546.076	-27.1064	-0.167802	0	-0.471438	0.0849731	-0.514499	0.025539	-68.9761	570.617	33.6315	-0.22783	0	-0.7676539999999999	-0.388812	3.21652	0.189578
1.14	-78.9114	547.898	-29.5221	-0.16819	0	-0.471292	0.0275383	-0.191205	0.0103026	-61.1029	566.1	34.2092	-0.227156	0	-0.767554	-0.329677	3.05436	0.184574
1.15	-64.07380000000001	542.806	-29.7478	-0.168709	0	-0.471147	0.008742140000000001	-0.0740596	0.00405875	-52.1324	558.552	37.2135	-0.226484	0	-0.768019	-0.242943	2.60291	0.173419
1.16	-49.8489	527.657	-27.6361	-0.168399	0	-0.471179	0.00528163	-0.0559067	0.00292811	-42.0013	544.6130000000001	40.7445	-0.225659	0	-0.7687889999999999	-0.149595	1.93973	0.145118
1.17	-37.3412	503.014	-24.4922	-0.167091	0	-0.471222	-0.00155404	0.020934	-0.0010193	-32.408	524.0359999999999	43.8597	-0.224483	0	-0.769637	-0.07186529999999999	1.16206	0.0972597
1.18	-30.019	476.169	-23.1175	-0.165205	0	-0.471124	-0.0186936	0.296524	-0.0143959	-27.835	501.439	45.8278	-0.222848	0	-0.77057	-0.0302969	0.5457880000000001	0.049881
1.19	-31.6448	456.716	-24.3064	-0.162973	0	-0.47074	-0.0388912	0.561301	-0.0298724	-30.3838	480.854	45.5584	-0.220901	0	-0.771184	-0.01968	0.311456	0.0295088
1.2	-34.2063	445.922	-23.8302	-0.160999	0	-0.470443	-0.0302302	0.394088	-0.0210602	-35.7319	461.493	42.9767	-0.218747	0	-0.77137	-0.030035	0.387915	0.0361248
1.21	-33.6617	439.45	-19.4925	-0.159451	0	-0.470686	0.0164143	-0.214287	0.009505039999999999	-38.8774	440.087	39.3094	-0.216659	0	-0.771306	-0.0470698	0.532825	0.0475929
1.22	-32.4091	433.992	-13.4423	-0.157984	0	-0.471233	0.06918290000000001	-0.926432	0.028695	-38.7651	416.796	35.4653	-0.214658	0	-0.771237	-0.0567961	0.610662	0.0519614
1.23	-31.2544	429.435	-8.750450000000001	-0.156481	0	-0.471579	0.10048	-1.38059	0.0281318	-38.0492	395.417	32.4222	-0.212457	0	-0.771162	-0.0580521	0.6032920000000001	0.0494669
1.24	-29.903	425.268	-7.19687	-0.155049	0	-0.471737	0.104575	-1.48722	0.0251685	-39.3067	378.681	30.2512	-0.210647	0	-0.771056	-0.0612011	0.589612	0.0471016
1.25	-28.5567	419.685	-8.865119999999999	-0.153725	0	-0.471449	0.0871528	-1.28085	0.0270556	-41.2167	365.058	28.2014	-0.209135	0	-0.770902	-0.0636439	0.563696	0.0435466
1.26	-26.7202	412.077	-12.7976	-0.152365	0	-0.470871	0.0596068	-0.91925	0.0285486	-41.3391	351.697	25.475	-0.207711	0	-0.770662	-0.0652131	0.554809	0.0401873
1.27	-25.4371	402.743	-17.1866	-0.150879	0	-0.470169	0.0365793	-0.579157	0.0247149	-39.916	338.35	22.487	-0.206283	0	-0.770496	-0.0674148	0.571446	0.0379788
1.28	-26.2201	393.516	-20.6612	-0.149397	0	-0.469483	0.020175	-0.302791	0.0158977	-38.46	325.867	19.8106	-0.205045	0	-0.770478	-0.0758007	0.64225	0.0390446
1.29	-27.141	383.624	-22.4131	-0.14828	0	-0.469186	0.0113478	-0.160396	0.00937107	-38.7102	314.611	17.5229	-0.203959	0	-0.770235	-0.08937059999999999	0.726344	0.0404553
1.3	-26.3233	373.204	-21.974	-0.147457	0	-0.469193	0.0162939	-0.23101	0.0136017	-40.0954	304.648	15.6058	-0.202874	0	-0.769857	-0.0994674	0.75576	0.0387144
1.31	-24.2377	364.803	-20.0326	-0.146769	0	-0.469326	0.0287323	-0.432451	0.0237474	-40.5286	294.433	13.9165	-0.202108	0	-0.769499	-0.108663	0.789415	0.0373119
1.32	-22.0636	358.482	-17.8985	-0.146238	0	-0.469433	0.0416788	-0.677183	0.0338108	-40.1528	283.655	12.4978	-0.201566	0	-0.769295	-0.104808	0.740406	0.0326221
1.33	-19.7041	352.946	-16.3081	-0.145985	0	-0.469113	0.0480084	-0.859943	0.0397343	-39.978	272.492	11.5856	-0.20076	0	-0.76927	-0.0928413	0.632812	0.0269054
1.34	-17.3266	347.999	-15.5749	-0.145938	0	-0.468595	0.0455956	-0.915772	0.0409859	-39.756	260.725	10.9887	-0.199924	0	-0.769354	-0.0802881	0.526541	0.0221919
1.35	-14.7718	341.899	-15.5048	-0.145633	0	-0.468218	0.0360107	-0.8334819999999999	0.0377976	-38.7007	248.109	10.5525	-0.19945	0	-0.769299	-0.06265419999999999	0.401673	0.0170839
1.36	-11.2491	332.016	-15.1351	-0.145403	0	-0.467955	0.0238249	-0.703189	0.0320551	-36.4893	234.426	9.927339999999999	-0.199544	0	-0.76901	-0.0420745	0.270308	0.0114469
1.37	-7.26267	318.581	-14.3307	-0.145406	0	-0.467434	0.0127471	-0.559157	0.0251526	-32.8257	220.094	8.96285	-0.199588	0	-0.768373	-0.0230425	0.154498	0.00629159
1.38	-4.03226	304.022	-13.7131	-0.145586	0	-0.46687	0.00518232	-0.390733	0.0176242	-28.3933	206.765	7.72202	-0.199703	0	-0.76781	-0.012141	0.0884125	0.00330193
1.39	-1.23907	291.096	-14.2396	-0.14603	0	-0.466578	0.0006968019999999999	-0.163701	0.008007820000000001	-23.3943	195.888	6.84987	-0.20024	0	-0.767117	-0.00771329	0.0645859	0.00225845
1.4	1.53959	280.043	-15.5096	-0.146625	0	-0.46584	0.00072496	0.131867	-0.00730316	-18.0395	186.918	6.38836	-0.201174	0	-0.766479	-0.008915889999999999	0.0923826	0.00315739
1.41	4.34374	271.112	-16.3514	-0.147656	0	-0.46481	0.0049511	0.30902	-0.0186378	-12.5545	178.816	5.80242	-0.202243	0	-0.76564	-0.0100744	0.143492	0.00465617
1.42	5.95921	269.636	-17.5189	-0.148969	0	-0.463888	0.00817501	0.369895	-0.0240329	-7.29363	175.368	5.05701	-0.203657	0	-0.764989	-0.0110714	0.266199	0.00767629
1.43	5.68272	279.666	-20.1252	-0.150396	0	-0.463356	0.00826962	0.406976	-0.0292866	-3.78834	180.759	4.84745	-0.20496	0	-0.76467	-0.008274399999999999	0.39481	0.0105877
1.44	6.03322	301.092	-22.4509	-0.152325	0	-0.463243	0.0053205	0.265523	-0.0197987	-1.84403	193.574	5.60148	-0.206091	0	-0.764516	-0.00551407	0.578829	0.0167497
1.45	9.275270000000001	332.366	-22.6373	-0.154705	0	-0.463692	-0.00579962	-0.207821	0.0141546	-0.723071	212.658	7.71502	-0.207366	0	-0.764725	-0.00273892	0.805525	0.0292237
1.46	12.7967	370.667	-21.0704	-0.157117	0	-0.464249	-0.031298	-0.906572	0.0515337	0.429914	238.428	11.1781	-0.209521	0	-0.765253	0.00181504	1.00661	0.0471923
1.47	12.8799	415.545	-20.704	-0.159355	0	-0.464481	-0.0501698	-1.61864	0.0806466	3.29821	274.668	16.1461	-0.212794	0	-0.766108	0.0145891	1.21495	0.0714196
1.48	9.954000000000001	464.496	-24.7638	-0.161406	0	-0.464187	-0.0449442	-2.09729	0.111813	6.67212	320.715	22.3451	-0.215919	0	-0.767193	0.0302916	1.45605	0.101447
1.49	7.19833	512.429	-32.7876	-0.163584	0	-0.463471	-0.0325887	-2.3199	0.148438	7.65579	372.846	29.2522	-0.21853	0	-0.768141	0.0354147	1.72474	0.135317
1.5	3.34455	556.739	-40.6782	-0.1657	0	-0.462839	-0.0159996	-2.66332	0.194596	7.41964	427.901	37.1814	-0.221432	0	-0.768851	0.0339701	1.9591	0.170232
1.51	-4.23319	597.734	-45.9668	-0.16721	0	-0.462701	0.0236635	-3.34132	0.256953	10.3108	487.589	47.2747	-0.225388	0	-0.7696539999999999	0.0434562	2.05501	0.199246
1.52	-14.4357	636.25	-48.9785	-0.167974	0	-0.462684	0.0955927	-4.21323	0.324334	19.257	554.52	57.9827	-0.229574	0	-0.770282	0.0745796	2.14758	0.224559
1.53	-23.6082	671.284	-50.7576	-0.168207	0	-0.462824	0.180295	-5.12658	0.387634	28.9806	624.624	65.6439	-0.233452	0	-0.77045	0.121367	2.61583	0.274907
1.54	-32.8775	700.891	-52.5874	-0.168107	0	-0.462978	0.274547	-5.85285	0.439135	34.8873	685.873	69.434	-0.236571	0	-0.770147	0.168935	3.3212	0.33622
1.55	-40.2507	726.183	-54.4039	-0.167773	0	-0.463014	0.355798	-6.41913	0.480906	36.4608	728.538	71.40389999999999	-0.238148	0	-0.769889	0.194578	3.88794	0.381056
1.56	-44.7229	749.2430000000001	-55.8867	-0.167201	0	-0.462824	0.409667	-6.86316	0.511929	32.7817	749.5940000000001	72.992	-0.2381	0	-0.769794	0.178169	4.07406	0.396712
1.57	-51.3765	768.174	-56.9492	-0.166083	0	-0.462508	0.472749	-7.06847	0.524027	21.2463	752.794	74.5226	-0.236387	0	-0.769977	0.109572	3.88234	0.384331
1.58	-60.1499	778.921	-57.9318	-0.164376	0	-0.462223	0.539631	-6.98805	0.519732	3.65644	743.388	74.5017	-0.233497	0	-0.770304	0.0178978	3.63879	0.364676
1.59	-71.1634	780.9880000000001	-59.1057	-0.162248	0	-0.461866	0.606501	-6.65609	0.503737	-14.591	727.066	71.569	-0.230339	0	-0.77046	-0.07415620000000001	3.69518	0.363736
1.6	-84.62990000000001	775.768	-60.0105	-0.159934	0	-0.461423	0.673121	-6.17023	0.477306	-30.6803	707.574	66.14100000000001	-0.22746	0	-0.770533	-0.172269	3.973	0.371379
1.61	-97.1482	763.081	-59.7594	-0.157613	0	-0.46102	0.7156090000000001	-5.62097	0.440197	-43.3144	682.952	60.1182	-0.224784	0	-0.770612	-0.263196	4.14989	0.365302
